<svg width="48" height="76" viewBox="0 0 48 76" fill="none" xmlns="http://www.w3.org/2000/svg">
<path d="M16.9703 7.53125C16.9703 3.64795 20.1197 0.5 24.0015 0.5C27.8834 0.5 31.0328 3.64795 31.0328 7.53125C31.0328 11.4146 27.8834 14.5625 24.0015 14.5625C20.1197 14.5625 16.9703 11.4146 16.9703 7.53125ZM13.4547 56.75H10.8472C9.24764 56.75 8.11824 55.1826 8.62361 53.6592L14.2281 36.8428L9.26961 45.1045C7.9366 47.3164 5.05672 48.0342 2.83748 46.7012C0.618185 45.3682 -0.0996763 42.4971 1.23392 40.2705L9.0865 27.2041C12.0528 22.2676 17.3951 19.25 23.1519 19.25H24.8512C30.608 19.25 35.9547 22.2676 38.9137 27.2041L46.7652 40.2705C48.0982 42.4971 47.3805 45.3682 45.1685 46.7012C42.942 48.0342 40.0709 47.3164 38.7379 45.1045L33.7721 36.8428L39.2506 53.6592C39.8805 55.1826 38.7525 56.75 37.1558 56.75H34.5484V70.8125C34.5484 73.4053 32.4537 75.5 29.8609 75.5C27.2681 75.5 25.1734 73.4053 25.1734 70.8125V56.75H22.8297V70.8125C22.8297 73.4053 20.7349 75.5 18.1422 75.5C15.5494 75.5 13.4547 73.4053 13.4547 70.8125V56.75Z" fill="#E1E1FF"/>
</svg>
