<svg width="32" height="32" viewBox="0 0 32 32" fill="none" xmlns="http://www.w3.org/2000/svg">
<path d="M23.6344 15.1156C24.1219 15.6031 24.1219 16.3969 23.6344 16.8844L16.8844 23.6344C16.3969 24.1219 15.6031 24.1219 15.1156 23.6344L8.36621 16.8844C7.87793 16.3969 7.87793 15.6031 8.36621 15.1156L15.1156 8.36621C15.6031 7.87793 16.3969 7.87793 16.8844 8.36621L23.6344 15.1156Z" fill="#024B75"/>
<path d="M24.1647 14.5852L24.1647 14.5853C24.9451 15.3657 24.9451 16.6343 24.1647 17.4147L17.4147 24.1647C16.6343 24.9451 15.3657 24.9451 14.5853 24.1647L14.5852 24.1647L7.83631 17.4151L24.1647 14.5852ZM24.1647 14.5852L17.4151 7.83631L24.1647 14.5852ZM7.83631 14.5848L7.83588 14.5853C7.05471 15.3657 7.05471 16.6343 7.83586 17.4147L7.83631 14.5848ZM7.83631 14.5848L14.5848 7.83631L7.83631 14.5848ZM17.4147 7.83586C16.6343 7.05471 15.3657 7.05471 14.5853 7.83588L17.4147 7.83586Z" stroke="black" stroke-opacity="0.3" stroke-width="1.5"/>
</svg>
