<svg width="48" height="76" viewBox="0 0 48 76" fill="none" xmlns="http://www.w3.org/2000/svg">
<path d="M31.0328 7.86426C31.0328 11.7476 27.8834 14.8955 24.0015 14.8955C20.1197 14.8955 16.9703 11.7476 16.9703 7.86426C16.9703 3.98096 20.1197 0.833008 24.0015 0.833008C27.8834 0.833008 31.0328 3.98096 31.0328 7.86426ZM22.8297 52.3955V71.1455C22.8297 73.7383 20.7349 75.833 18.1422 75.833C15.5494 75.833 13.4547 73.7383 13.4547 71.1455V38.4648L9.26961 45.4375C7.9366 47.6494 5.05672 48.3672 2.83748 47.0342C0.618185 45.7012 -0.0996764 42.8301 1.23392 40.6035L9.77059 26.4092C12.3121 22.1758 16.8824 19.583 21.8189 19.583H26.1842C31.1207 19.583 35.691 22.1758 38.2398 26.4092L46.7652 40.6035C48.0982 42.8301 47.3805 45.7012 45.1685 47.0342C42.942 48.3672 40.0709 47.6494 38.7379 45.4375L34.5484 38.4648V71.1455C34.5484 73.7383 32.4537 75.833 29.8609 75.833C27.2681 75.833 25.1734 73.7383 25.1734 71.1455V52.3955H22.8297Z" fill="#E1E1FF"/>
</svg>
